<svg width="64" height="80" viewBox="0 0 64 80" fill="none" xmlns="http://www.w3.org/2000/svg">
<path d="M42.1499 36.12C41.2589 35.3028 40.2469 34.6282 39.1499 34.12L37.1999 33.3H37.1499C37.0472 33.2614 36.9394 33.2378 36.8299 33.23H35.2999C37.2573 31.5774 38.6345 29.3417 39.2299 26.85H39.9999C40.3686 26.85 40.7221 26.7036 40.9828 26.4429C41.2435 26.1822 41.3899 25.8287 41.3899 25.46V22.68C41.3899 22.3114 41.2435 21.9578 40.9828 21.6971C40.7221 21.4365 40.3686 21.29 39.9999 21.29H39.2099C38.5819 18.6676 37.0889 16.3331 34.9717 14.6631C32.8545 12.9931 30.2365 12.0848 27.5399 12.0848C24.8433 12.0848 22.2254 12.9931 20.1082 14.6631C17.991 16.3331 16.498 18.6676 15.8699 21.29H15.0999C14.7313 21.29 14.3777 21.4365 14.117 21.6971C13.8564 21.9578 13.7099 22.3114 13.7099 22.68V25.44C13.7099 25.8087 13.8564 26.1622 14.117 26.4229C14.3777 26.6836 14.7313 26.83 15.0999 26.83H15.8899C16.4853 29.3217 17.8625 31.5574 19.8199 33.21H18.3299H18.2699C18.1778 33.2121 18.0867 33.229 17.9999 33.26H17.9099C17.8141 33.3012 17.7261 33.3587 17.6499 33.43C11.1599 29.8 7.73992 26.43 7.48992 23.52C7.23992 20.61 10.2299 18.17 12.8699 16.06C15.1399 14.25 17.0999 12.69 16.6099 10.81C16.0999 9.19001 13.8199 7.70001 4.13992 6.07001C4.0086 6.04769 3.87416 6.05145 3.74429 6.08108C3.61443 6.1107 3.49166 6.16562 3.38302 6.2427C3.1636 6.39835 3.015 6.63479 2.96992 6.90001C2.92483 7.16523 2.98695 7.43749 3.1426 7.65691C3.29826 7.87633 3.5347 8.02492 3.79992 8.07001C13.1799 9.64001 14.4899 10.95 14.6099 11.44C14.7299 11.93 12.9199 13.55 11.6099 14.63C8.72992 16.93 5.14992 19.8 5.48992 23.82C5.78992 27.37 9.18992 30.98 15.8499 34.82C14.7453 35.4327 13.4605 35.638 12.2199 35.4C11.2229 35.1907 10.3047 34.7056 9.56992 34L9.12992 33.56L7.82992 32.2C7.28728 31.6932 6.57245 31.4112 5.82992 31.4112C5.08739 31.4112 4.37256 31.6932 3.82992 32.2C3.30471 32.7332 3.01031 33.4516 3.01031 34.2C3.01031 34.9484 3.30471 35.6668 3.82992 36.2L4.43992 36.81C4.27408 36.9938 4.18228 37.2325 4.18228 37.48C4.18228 37.7275 4.27408 37.9663 4.43992 38.15L5.99992 39.75C8.25623 42.0111 11.3157 43.2873 14.5099 43.3C15.454 43.2982 16.3944 43.1807 17.3099 42.95V45.95C17.2499 45.95 17.1999 45.84 17.1399 45.8C16.5885 45.4227 15.9458 45.2005 15.2791 45.1565C14.6124 45.1125 13.9461 45.2484 13.3499 45.55C11.9407 46.1734 10.7174 47.152 9.79992 48.39C8.84101 49.6112 8.22023 51.0631 7.99992 52.6C7.85846 53.2525 7.89523 53.9311 8.10637 54.5645C8.31751 55.1979 8.69523 55.7629 9.19992 56.2C9.75971 56.625 10.4473 56.8471 11.1499 56.83C12.3655 56.7693 13.5338 56.3403 14.4999 55.6L18.2199 59.06C18.7901 59.8785 19.6069 60.4934 20.5512 60.815C21.4954 61.1365 22.5178 61.148 23.469 60.8477C24.4202 60.5473 25.2506 59.9509 25.839 59.1454C26.4274 58.3399 26.7431 57.3675 26.7399 56.37V53.7C26.7329 53.4872 26.7983 53.2783 26.9255 53.1076C27.0527 52.9368 27.234 52.8143 27.4399 52.76C27.5634 52.7408 27.6895 52.7477 27.8102 52.7805C27.9308 52.8132 28.0431 52.871 28.1399 52.95C28.2342 53.03 28.3099 53.1296 28.3617 53.2419C28.4135 53.3541 28.4402 53.4764 28.4399 53.6V56.37C28.4399 57.6139 28.934 58.8068 29.8136 59.6863C30.6931 60.5659 31.8861 61.06 33.1299 61.06C34.3738 61.06 35.5667 60.5659 36.4462 59.6863C37.3258 58.8068 37.8199 57.6139 37.8199 56.37V42.57C38.3631 43.0835 38.7938 43.7041 39.0847 44.3927C39.3756 45.0812 39.5204 45.8226 39.5099 46.57V49C39.5099 49.7559 39.8102 50.4808 40.3447 51.0153C40.8791 51.5497 41.604 51.85 42.3599 51.85C43.1158 51.85 43.8407 51.5497 44.3752 51.0153C44.9097 50.4808 45.2099 49.7559 45.2099 49V48.14C45.461 48.1199 45.6953 48.0057 45.8659 47.8203C46.0364 47.6349 46.1307 47.3919 46.1299 47.14V44.92C46.1241 43.2556 45.7665 41.6111 45.0806 40.0946C44.3947 38.578 43.396 37.2235 42.1499 36.12ZM5.81992 35.41L5.21992 34.81C5.14178 34.7319 5.0798 34.6391 5.03751 34.537C4.99523 34.4349 4.97346 34.3255 4.97346 34.215C4.97346 34.1045 4.99523 33.9951 5.03751 33.893C5.0798 33.7909 5.14178 33.6981 5.21992 33.62C5.29805 33.5419 5.39082 33.4799 5.49291 33.4376C5.595 33.3953 5.70442 33.3736 5.81492 33.3736C5.92542 33.3736 6.03484 33.3953 6.13693 33.4376C6.23902 33.4799 6.33178 33.5419 6.40992 33.62L7.00992 34.21L5.81992 35.41ZM11.2199 40.69C11.5553 40.406 11.9853 40.2587 12.4244 40.2772C12.8635 40.2957 13.2796 40.4788 13.5899 40.79C13.7227 40.9197 13.831 41.0721 13.9099 41.24C12.9929 41.1766 12.0883 40.9916 11.2199 40.69ZM21.0999 40.75C20.9021 40.75 20.7088 40.6914 20.5443 40.5815C20.3799 40.4716 20.2517 40.3154 20.176 40.1327C20.1004 39.95 20.0805 39.7489 20.1191 39.5549C20.1577 39.3609 20.253 39.1828 20.3928 39.0429C20.5327 38.9031 20.7108 38.8078 20.9048 38.7692C21.0988 38.7306 21.2999 38.7504 21.4826 38.8261C21.6653 38.9018 21.8215 39.03 21.9314 39.1944C22.0413 39.3589 22.0999 39.5522 22.0999 39.75C22.0999 40.0152 21.9946 40.2696 21.807 40.4571C21.6195 40.6447 21.3651 40.75 21.0999 40.75ZM24.0999 40.75C23.9021 40.75 23.7088 40.6914 23.5443 40.5815C23.3799 40.4716 23.2517 40.3154 23.176 40.1327C23.1004 39.95 23.0805 39.7489 23.1191 39.5549C23.1577 39.3609 23.253 39.1828 23.3928 39.0429C23.5327 38.9031 23.7108 38.8078 23.9048 38.7692C24.0988 38.7306 24.2999 38.7504 24.4826 38.8261C24.6653 38.9018 24.8215 39.03 24.9314 39.1944C25.0413 39.3589 25.0999 39.5522 25.0999 39.75C25.0999 40.0152 24.9946 40.2696 24.807 40.4571C24.6195 40.6447 24.3651 40.75 24.0999 40.75ZM24.0999 29.6C23.0693 29.6139 22.0627 29.2886 21.2352 28.6742C20.4076 28.0599 19.8049 27.1905 19.5199 26.2C19.3346 25.5018 19.2405 24.7824 19.2399 24.06C19.2662 22.8186 19.7805 21.6376 20.6715 20.7729C21.5625 19.9081 22.7583 19.4292 23.9999 19.44H31.0999C32.3331 19.4262 33.5227 19.8957 34.4142 20.7479C35.3057 21.6001 35.8282 22.7674 35.8699 24C35.8693 24.7224 35.7752 25.4418 35.5899 26.14C35.3156 27.1434 34.7161 28.0273 33.8855 28.6535C33.0549 29.2796 32.04 29.6125 30.9999 29.6H24.0999ZM35.7899 43.37H28.5599V40.75H32.0999V41.6C32.0999 41.8652 32.2053 42.1196 32.3928 42.3071C32.5803 42.4947 32.8347 42.6 33.0999 42.6C33.3651 42.6 33.6195 42.4947 33.807 42.3071C33.9946 42.1196 34.0999 41.8652 34.0999 41.6V40.75H35.7899V43.37ZM43.1799 49C43.1799 49.2254 43.0904 49.4416 42.931 49.6011C42.7716 49.7605 42.5554 49.85 42.3299 49.85C42.1045 49.85 41.8883 49.7605 41.7289 49.6011C41.5695 49.4416 41.4799 49.2254 41.4799 49V48.16H43.1799V49ZM41.4799 38.85C41.4814 38.6901 41.5084 38.5314 41.5599 38.38C42.164 39.0462 42.6723 39.7934 43.0699 40.6C42.6323 40.5553 42.2271 40.3492 41.9332 40.022C41.6392 39.6948 41.4776 39.2699 41.4799 38.83V38.85Z" fill="#DFDFDF"/>
<path d="M43.48 20.4802C43.6822 20.6793 43.9233 20.8345 44.1884 20.936C44.4534 21.0375 44.7365 21.0832 45.02 21.0702C46.5006 20.9071 47.9117 20.3551 49.11 19.4702C50.033 19.8213 51.0124 20.0009 52 20.0002C54.1217 20.0002 56.1565 19.1573 57.6568 17.657C59.1571 16.1567 60 14.1219 60 12.0002C59.998 11.0226 59.8184 10.0535 59.47 9.14016C61.16 6.44016 61.52 4.55016 60.47 3.51016C59.42 2.47016 57.54 2.84016 54.85 4.51016C53.9382 4.17059 52.9729 3.99783 52 4.00016C49.8782 4.00016 47.8434 4.84301 46.3431 6.3433C44.8428 7.8436 44 9.87843 44 12.0002C44.0028 12.9776 44.1824 13.9466 44.53 14.8602C42.81 17.5502 42.45 19.4502 43.48 20.4802ZM59 4.90016C59.07 5.05016 59 5.75016 58.28 7.12016C58.0704 6.84867 57.8467 6.58832 57.61 6.34016C57.3585 6.10008 57.0948 5.87312 56.82 5.66016C57.471 5.2272 58.2209 4.96578 59 4.90016ZM45.61 16.9002C45.8204 17.177 46.0475 17.4409 46.29 17.6902C46.5394 17.9294 46.8032 18.1532 47.08 18.3602C46.4307 18.7982 45.6803 19.0633 44.9 19.1302C44.85 19.0002 44.9 18.2502 45.63 16.8702L45.61 16.9002Z" fill="#DFDFDF"/>
<path d="M55 30.06C54.7348 30.06 54.4804 29.9546 54.2929 29.7671C54.1054 29.5796 54 29.3252 54 29.06C54 28.7948 54.1054 28.5404 54.2929 28.3529C54.4804 28.1653 54.7348 28.06 55 28.06H60.31C59.6243 26.6322 58.4748 25.4792 57.0491 24.7893C55.6234 24.0994 54.0059 23.9134 52.4608 24.2616C50.9157 24.6099 49.5344 25.4718 48.5425 26.7067C47.5507 27.9415 47.0069 29.4762 47 31.06C47.0006 31.3949 47.0273 31.7292 47.08 32.06H53C53.2652 32.06 53.5196 32.1653 53.7071 32.3529C53.8946 32.5404 54 32.7948 54 33.06C54 33.3252 53.8946 33.5795 53.7071 33.7671C53.5196 33.9546 53.2652 34.06 53 34.06H47.65C48.3326 35.4934 49.4821 36.6521 50.91 37.3461C52.3379 38.0402 53.9593 38.2282 55.5081 37.8793C57.0569 37.5305 58.4411 36.6656 59.4336 35.4264C60.426 34.1873 60.9678 32.6476 60.97 31.06C60.9686 30.7251 60.9419 30.3908 60.89 30.06H55ZM52 30.06H51C50.7348 30.06 50.4804 29.9546 50.2929 29.7671C50.1054 29.5796 50 29.3252 50 29.06C50 28.7948 50.1054 28.5404 50.2929 28.3529C50.4804 28.1653 50.7348 28.06 51 28.06H52C52.2652 28.06 52.5196 28.1653 52.7071 28.3529C52.8946 28.5404 53 28.7948 53 29.06C53 29.3252 52.8946 29.5796 52.7071 29.7671C52.5196 29.9546 52.2652 30.06 52 30.06ZM57 34.06H56C55.7348 34.06 55.4804 33.9546 55.2929 33.7671C55.1054 33.5795 55 33.3252 55 33.06C55 32.7948 55.1054 32.5404 55.2929 32.3529C55.4804 32.1653 55.7348 32.06 56 32.06H57C57.2652 32.06 57.5196 32.1653 57.7071 32.3529C57.8946 32.5404 58 32.7948 58 33.06C58 33.3252 57.8946 33.5795 57.7071 33.7671C57.5196 33.9546 57.2652 34.06 57 34.06Z" fill="#DFDFDF"/>
</svg>
