<svg width="33" height="30" viewBox="0 0 33 30" fill="none" xmlns="http://www.w3.org/2000/svg">
<path d="M13.6172 1.41503C-4.68707 2.44994 -4.46966 28.5356 13.8572 29.265C17.6048 29.265 21.0048 27.7703 23.5113 25.3547C28.6846 23.6435 32.4317 18.7642 32.4317 13.0204C32.6058 3.53625 21.9671 -3.01496 13.6172 1.41503ZM1.92609 15.3337C1.92609 8.75475 7.27814 3.4027 13.8572 3.4027C20.4363 3.4027 25.7884 8.75475 25.7884 15.3339C25.1334 31.1622 2.57867 31.1576 1.92609 15.3337Z" fill="#121212"/>
<path d="M3.78833 15.334C3.78833 20.8857 8.30542 25.4028 13.8572 25.4028C19.4089 25.4028 23.926 20.8857 23.926 15.3339C23.3726 1.97625 4.33973 1.98016 3.78833 15.334ZM13.0642 14.3339H14.6506C17.9324 14.4061 18.1184 19.1613 14.8572 19.4854V20.0927C14.8572 20.645 14.4094 21.0927 13.8572 21.0927C13.3049 21.0927 12.8572 20.645 12.8572 20.0927V19.5063H11.4778C10.1637 19.4835 10.1631 17.5288 11.4778 17.5063H14.6506C15.4157 17.5032 15.4174 16.3375 14.6506 16.3339H13.0642C9.78088 16.2609 9.59644 11.5073 12.8572 11.1825V10.5756C12.8572 10.0234 13.3049 9.57562 13.8572 9.57562C14.4094 9.57562 14.8572 10.0234 14.8572 10.5756V11.1616H16.2366C17.5505 11.1844 17.5513 13.1388 16.2366 13.1616H13.0642C12.2983 13.1658 12.2969 14.3299 13.0642 14.3339Z" fill="#121212"/>
</svg>
