<svg width="64" height="80" viewBox="0 0 64 80" fill="none" xmlns="http://www.w3.org/2000/svg">
<path d="M31.5063 41.9644C31.5063 47.5162 36.0229 52.0328 41.5757 52.0328C54.9333 51.4798 54.9284 32.4457 41.5756 31.895C36.023 31.8951 31.5063 36.4117 31.5063 41.9644ZM42.5757 37.2056V37.7916H43.9546C45.2688 37.8139 45.2695 39.7695 43.9545 39.7916C43.9546 39.7916 40.7817 39.7916 40.7817 39.7916C40.0158 39.7955 40.0156 40.9601 40.7818 40.9644C40.7817 40.9644 42.3687 40.9644 42.3687 40.9644C45.6503 41.0366 45.8364 45.7907 42.5757 46.1154V46.7222C42.5757 47.275 42.1284 47.7222 41.5757 47.7222C41.023 47.7222 40.5757 47.275 40.5757 46.7222V46.1363H39.1958C37.8816 46.114 37.8809 44.1583 39.1959 44.1363C39.1958 44.1363 42.3687 44.1363 42.3687 44.1363C42.6919 44.1363 42.9546 43.8736 42.9546 43.5504C42.9546 43.2271 42.6919 42.9644 42.3687 42.9644H40.7817C37.4999 42.8924 37.3138 38.1359 40.5757 37.8124V37.2056C40.5974 35.8909 42.5542 35.8914 42.5757 37.2056Z" fill="#dfdfdf"/>
<path d="M52.0763 29.0751C51.2863 28.5151 50.5863 27.995 49.9663 27.475C49.2816 27.7312 47.9332 27.6252 47.2063 27.6451C48.1862 28.6451 49.4063 29.6451 50.9362 30.7151C55.4412 33.8664 57.8812 39.3111 58.9078 43.9505C58.8014 46.5207 56.7874 48.9725 54.2807 49.5533C53.7426 49.6783 53.4076 50.2154 53.5316 50.7535C54.2833 53.0741 58.8811 49.4388 59.4864 48.1911C59.8361 60.1268 42.3822 61.1045 32.3863 59.0125C38.1716 58.0462 43.337 53.3083 49.5053 56.4554C49.974 56.7515 50.5902 56.6109 50.8851 56.1441C51.1801 55.6773 51.0404 55.0591 50.5736 54.7642C45.2121 51.3236 38.4305 55.2571 32.7866 56.8807C30.2906 57.4957 28.0001 57.3813 26.2702 56.6068C24.0346 55.1206 22.5062 52.9782 22.5062 49.8951C22.5062 45.625 25.5162 36.305 28.2163 33.605C32.5588 29.26 39.0855 24.5209 38.6262 17.745C38.1348 18.165 37.5972 18.511 37.0259 18.8032C37.5437 18.3595 38.1892 17.6933 38.719 16.7248C39.7485 14.8427 39.6723 13.0347 39.5984 12.2925C42.4339 19.5417 48.9811 16.3865 46.2485 9.46807C44.491 5.55028 39.2463 4.99834 35.7921 7.1748C33.6063 8.48724 31.9831 10.7045 31.3925 13.1846C29.9149 14.4802 27.782 15.0093 25.9114 14.5173C25.1984 13.0543 23.7097 12.0351 21.9762 12.0351H6.89626C4.47622 12.0351 2.50625 14.0051 2.50625 16.425V28.8951C2.25466 31.5039 4.22689 33.8723 6.89633 33.855C6.89627 33.855 21.7663 33.855 21.7663 33.855C24.2564 33.9642 26.3732 31.9752 26.3662 29.475V27.487C27.4313 26.7979 29.9715 26.5289 31.1408 26.9686C32.813 26.0005 35.9055 22.2313 36.5449 19.6519C35.6722 24.828 30.329 28.584 26.7963 32.1851C23.6762 35.315 20.5063 45.125 20.5063 49.8951C20.2572 66.603 62.2319 65.9758 61.506 48.8956C61.5063 43.5751 58.9962 33.915 52.0763 29.0751ZM24.3662 29.475C24.3662 30.6451 23.5163 31.625 22.3963 31.8251C21.9063 29.5751 19.8963 27.8951 17.5063 27.8951H4.50624V16.425C4.50624 15.105 5.57625 14.0351 6.89625 14.0351H21.9762C23.2962 14.0351 24.3662 15.105 24.3662 16.425L24.3662 29.475Z" fill="#dfdfdf"/>
<path d="M45.6963 5.65509C44.779 1.44727 39.3185 0.51709 37.2864 4.33508C40.1436 3.44281 43.2888 3.8703 45.6963 5.65509Z" fill="#dfdfdf"/>
<path d="M48.7963 6.13513H46.2664C46.9014 7.38751 47.5707 9.4292 47.7989 10.8845C49.2945 11.067 50.827 10.5523 50.8663 8.82501C50.8663 8.82513 50.8663 8.20514 50.8663 8.20514C50.8663 7.06513 49.9464 6.13513 48.7963 6.13513Z" fill="#dfdfdf"/>
<path d="M52.5063 14.0351C52.7079 10.8517 50.1451 11.3664 47.8946 11.3153C48.0812 12.4071 47.6795 14.8262 47.0488 15.911C48.9971 15.8869 52.3328 16.9627 52.5063 14.0351Z" fill="#dfdfdf"/>
<path d="M51.5062 19.235C51.7384 16.0453 49.0305 16.5929 46.8041 16.3525C46.5435 16.5831 46.1379 16.8797 45.5807 17.0759C44.3567 17.507 43.2681 17.1479 42.9104 17.0121C42.683 18.7493 42.453 21.1879 44.8463 21.295C44.8462 21.295 49.4362 21.295 49.4362 21.295C50.5762 21.295 51.5062 20.3751 51.5062 19.235Z" fill="#dfdfdf"/>
<path d="M50.5852 23.9252C50.7258 22.8227 50.0408 21.747 48.861 21.7494H45.2893C42.9585 21.759 42.958 25.6396 45.2893 25.6494H48.8611C49.8133 25.6494 50.5852 24.8774 50.5852 23.9252Z" fill="#dfdfdf"/>
</svg>
