<svg width="33" height="33" viewBox="0 0 33 33" fill="none" xmlns="http://www.w3.org/2000/svg">
<path d="M5.61773 4.75531C-8.80134 20.2738 12.7659 41.8675 28.2448 27.3821C42.6317 11.7536 21.2427 -9.63068 5.61773 4.75531ZM26.8306 25.9682C21.6188 31.399 12.2435 31.3998 7.03179 25.968C-1.78047 17.1945 4.63463 1.99256 16.9314 2.07569C29.2282 1.99378 35.6434 17.1949 26.8306 25.9682Z" fill="#DFDFDF"/>
<path d="M8.44584 7.58326C0.893291 15.1042 6.39103 28.1347 16.9314 28.0626C27.4714 28.1344 32.9696 15.1026 25.4164 7.5832C20.7378 2.90455 13.1246 2.90455 8.44584 7.58326ZM22.5879 17.9622H18.4312V22.1189C18.4312 22.9475 17.7598 23.6189 16.9312 23.6189C16.1026 23.6189 15.4312 22.9475 15.4312 22.1189V17.9622H11.2745C10.4458 17.9622 9.77445 17.2908 9.77445 16.4622C9.77445 15.6336 10.4458 14.9622 11.2745 14.9622H15.4312V10.8054C15.4312 9.97682 16.1026 9.30543 16.9312 9.30543C17.7598 9.30543 18.4312 9.97682 18.4312 10.8054V14.9622H22.5879C24.5596 14.9952 24.5594 17.9293 22.5879 17.9622Z" fill="#DFDFDF"/>
</svg>
