<svg width="64" height="80" viewBox="0 0 64 80" fill="none" xmlns="http://www.w3.org/2000/svg">
<path d="M34.9999 6.05987C32.195 6.05999 29.4087 6.51593 26.7499 7.40987C27.1599 6.12987 27.0599 5.14987 26.4199 4.50987C25.4199 3.50987 23.5199 3.82987 20.8699 5.50987C19.4127 4.9401 17.821 4.80683 16.2893 5.12631C14.7575 5.4458 13.3519 6.20422 12.2439 7.30905C11.1359 8.41387 10.3734 9.81732 10.0495 11.3481C9.72566 12.879 9.85436 14.471 10.4199 15.9299C8.76994 18.5899 8.41994 20.4599 9.41994 21.4799C9.62133 21.6772 9.86093 21.8314 10.124 21.9328C10.3871 22.0343 10.6682 22.0809 10.9499 22.0699C9.62405 25.2368 8.94408 28.6366 8.94994 32.0699C8.94994 36.0481 10.5303 39.8634 13.3433 42.6765C16.1564 45.4895 19.9717 47.0699 23.9499 47.0699C24.4899 47.0699 25.0199 47.0699 25.5399 46.9899C25.6202 47.6449 25.8392 48.2753 26.1825 48.839C26.5257 49.4027 26.9852 49.8867 27.5304 50.2586C28.0756 50.6306 28.6938 50.882 29.3438 50.996C29.9939 51.11 30.6607 51.0841 31.2999 50.9199C31.3189 50.942 31.3429 50.9591 31.3699 50.9699C32.2167 51.6317 33.2315 52.0438 34.2999 52.1599C34.5189 52.166 34.7369 52.1285 34.9412 52.0495C35.1455 51.9706 35.3321 51.8517 35.4899 51.6999C36.2899 50.8899 36.0499 49.4999 34.7599 47.5699L34.7099 47.5199C34.8869 46.8052 34.8931 46.0589 34.728 45.3415C34.563 44.624 34.2313 43.9554 33.7599 43.3899C35.3957 41.9883 36.7103 40.2509 37.6145 38.2959C38.5187 36.3408 38.9912 34.2139 38.9999 32.0599C38.9999 31.7947 38.8946 31.5403 38.707 31.3528C38.5195 31.1652 38.2652 31.0599 37.9999 31.0599C37.7347 31.0599 37.4804 31.1652 37.2928 31.3528C37.1053 31.5403 36.9999 31.7947 36.9999 32.0599C37 33.9903 36.5702 35.8965 35.7416 37.64C34.9131 39.3836 33.7067 40.9207 32.2099 42.1399C31.2353 41.6842 30.1335 41.5783 29.0899 41.8399L28.9999 41.7799C27.0699 40.4999 25.6799 40.2499 24.8799 41.0599C24.0799 41.8699 24.3099 43.1499 25.4699 44.9699C24.9722 45.0303 24.4713 45.0604 23.9699 45.0599C20.5221 45.0599 17.2155 43.6902 14.7776 41.2523C12.3396 38.8143 10.9699 35.5077 10.9699 32.0599C10.9684 28.3373 11.8383 24.666 13.5099 21.3399C14.0227 21.0931 14.5202 20.8159 14.9999 20.5099C16.4593 21.0825 18.054 21.2171 19.5887 20.8973C21.1235 20.5774 22.5316 19.8168 23.6406 18.7088C24.7497 17.6008 25.5116 16.1934 25.8329 14.659C26.1543 13.1246 26.0212 11.5298 25.4499 10.0699C29.0995 8.48694 33.0853 7.836 37.0488 8.1756C41.0123 8.51519 44.8293 9.83468 48.1563 12.0154C51.4834 14.1961 54.2163 17.1696 56.1091 20.6685C58.0019 24.1673 58.9953 28.0818 58.9999 32.0599C58.9999 32.3251 59.1053 32.5794 59.2928 32.767C59.4804 32.9545 59.7347 33.0599 59.9999 33.0599C60.2652 33.0599 60.5195 32.9545 60.707 32.767C60.8946 32.5794 60.9999 32.3251 60.9999 32.0599C60.9999 25.1642 58.2607 18.551 53.3847 13.6751C48.5088 8.79915 41.8956 6.05987 34.9999 6.05987ZM33.5399 49.6899C33.5829 49.6424 33.623 49.5923 33.6599 49.5399C33.7477 49.7012 33.8246 49.8682 33.8899 50.0399C33.7191 49.9726 33.5522 49.8958 33.3899 49.8099C33.4442 49.7755 33.4945 49.7352 33.5399 49.6899ZM27.0499 42.9299C27.0058 42.9727 26.959 43.0128 26.9099 43.0499L26.7799 43.1999C26.697 43.041 26.6235 42.8774 26.5599 42.7099C26.7275 42.7734 26.8911 42.8469 27.0499 42.9299ZM12.0499 19.7999C11.6793 19.9839 11.2735 20.0862 10.8599 20.0999C10.7899 19.9499 10.8599 19.2699 11.5299 17.9399C11.7397 18.2048 11.9634 18.4585 12.1999 18.6999L12.5099 18.9899C12.3899 19.2499 12.2299 19.5199 12.0799 19.7999H12.0499ZM24.2999 8.05987C24.0965 7.79259 23.8761 7.53873 23.6399 7.29987C23.4003 7.05768 23.1429 6.83372 22.8699 6.62987C23.5046 6.20592 24.2386 5.95435 24.9999 5.89987C25.0499 6.04987 24.9999 6.72987 24.2999 8.05987Z" fill="#DFDFDF"/>
<path d="M47 53.0601C46.7348 53.0601 46.4804 52.9547 46.2929 52.7672C46.1054 52.5796 46 52.3253 46 52.0601C46.0016 51.8979 46.0464 51.7391 46.13 51.6001L46.65 51.1401C46.7593 51.0879 46.8789 51.0605 47 51.0601H51.19C50.637 50.112 49.8346 49.3337 48.87 48.8101C52.832 44.1286 55.0043 38.1931 55 32.0601C55 28.0818 53.4196 24.2665 50.6066 21.4535C47.7936 18.6404 43.9782 17.0601 40 17.0601C36.0218 17.0601 32.2064 18.6404 29.3934 21.4535C26.5804 24.2665 25 28.0818 25 32.0601C25 32.3253 25.1054 32.5796 25.2929 32.7672C25.4804 32.9547 25.7348 33.0601 26 33.0601C26.2652 33.0601 26.5196 32.9547 26.7071 32.7672C26.8946 32.5796 27 32.3253 27 32.0601C27 28.6122 28.3696 25.3056 30.8076 22.8677C33.2456 20.4297 36.5522 19.0601 40 19.0601C43.4478 19.0601 46.7544 20.4297 49.1924 22.8677C51.6304 25.3056 53 28.6122 53 32.0601C53.0045 37.9949 50.8018 43.7192 46.82 48.1201C46.5485 48.0798 46.2744 48.0598 46 48.0601C44.5229 48.05 43.0939 48.5851 41.9868 49.5631C40.8797 50.541 40.1723 51.893 40 53.3601C36.3438 55.2455 32.2644 56.1595 28.1532 56.0144C24.0421 55.8693 20.0372 54.6698 16.5231 52.5312C13.009 50.3926 10.1036 47.3867 8.08569 43.8019C6.06783 40.2171 5.00527 36.1738 5 32.0601C5 31.7948 4.89464 31.5405 4.70711 31.353C4.51957 31.1654 4.26522 31.0601 4 31.0601C3.73478 31.0601 3.48043 31.1654 3.29289 31.353C3.10536 31.5405 3 31.7948 3 32.0601C3 38.9557 5.73928 45.5689 10.6152 50.4448C15.4912 55.3208 22.1044 58.0601 29 58.0601C33.2185 58.0687 37.3742 57.0383 41.1 55.0601H45C45.2652 55.0601 45.5196 55.1654 45.7071 55.353C45.8946 55.5405 46 55.7948 46 56.0601C46 56.3253 45.8946 56.5796 45.7071 56.7672C45.5196 56.9547 45.2652 57.0601 45 57.0601H40.81C41.4718 58.2009 42.491 59.0919 43.71 59.5952C44.929 60.0986 46.2799 60.1863 47.5537 59.8448C48.8276 59.5033 49.9534 58.7516 50.7571 57.7059C51.5609 56.6602 51.9977 55.3789 52 54.0601C51.9953 53.7249 51.9652 53.3906 51.91 53.0601H47ZM42 52.2001C41.9943 52.1536 41.9943 52.1066 42 52.0601C42 51.7948 42.1054 51.5405 42.2929 51.353C42.4804 51.1654 42.7348 51.0601 43 51.0601H43.64C43.1131 51.4677 42.5657 51.8482 42 52.2001ZM49 57.0601H48C47.7348 57.0601 47.4804 56.9547 47.2929 56.7672C47.1054 56.5796 47 56.3253 47 56.0601C47 55.7948 47.1054 55.5405 47.2929 55.353C47.4804 55.1654 47.7348 55.0601 48 55.0601H49C49.2652 55.0601 49.5196 55.1654 49.7071 55.353C49.8946 55.5405 50 55.7948 50 56.0601C50 56.3253 49.8946 56.5796 49.7071 56.7672C49.5196 56.9547 49.2652 57.0601 49 57.0601Z" fill="#DFDFDF"/>
<path d="M44.5 31.5601C46.433 31.5601 48 29.9931 48 28.0601C48 26.1271 46.433 24.5601 44.5 24.5601C42.567 24.5601 41 26.1271 41 28.0601C41 29.9931 42.567 31.5601 44.5 31.5601Z" fill="#DFDFDF"/>
<path d="M20 32.0601C21.1046 32.0601 22 31.1646 22 30.0601C22 28.9555 21.1046 28.0601 20 28.0601C18.8954 28.0601 18 28.9555 18 30.0601C18 31.1646 18.8954 32.0601 20 32.0601Z" fill="#DFDFDF"/>
<path d="M57.5 46.0601C58.8807 46.0601 60 44.9408 60 43.5601C60 42.1793 58.8807 41.0601 57.5 41.0601C56.1193 41.0601 55 42.1793 55 43.5601C55 44.9408 56.1193 46.0601 57.5 46.0601Z" fill="#DFDFDF"/>
</svg>
