<svg width="64" height="80" viewBox="0 0 64 80" fill="none" xmlns="http://www.w3.org/2000/svg">
<path d="M31.8812 2.54748C13.5768 3.58239 13.7943 29.6681 32.1212 30.3975C35.8687 30.3975 39.2687 28.9027 41.7752 26.4871C46.9485 24.7759 50.6956 19.8966 50.6956 14.1528C50.8697 4.6687 40.231 -1.88251 31.8812 2.54748ZM20.19 16.4662C20.19 9.8872 25.5421 4.53515 32.1212 4.53515C38.7003 4.53515 44.0523 9.8872 44.0523 16.4663C43.3973 32.2947 20.8426 32.29 20.19 16.4662Z" fill="#dfdfdf"/>
<path d="M22.0522 16.4664C22.0522 22.0181 26.5693 26.5352 32.1211 26.5352C37.6729 26.5352 42.1899 22.0181 42.1899 16.4664C41.6365 3.10869 22.6036 3.1126 22.0522 16.4664ZM31.3281 15.4664H32.9146C36.1963 15.5385 36.3823 20.2938 33.1211 20.6179V21.2252C33.1211 21.7774 32.6733 22.2252 32.1211 22.2252C31.5688 22.2252 31.1211 21.7774 31.1211 21.2252V20.6387H29.7417C28.4276 20.616 28.427 18.6612 29.7417 18.6387H32.9146C33.6796 18.6357 33.6813 17.4699 32.9146 17.4664H31.3281C28.0448 17.3933 27.8604 12.6397 31.1211 12.3149V11.7081C31.1211 11.1558 31.5688 10.7081 32.1211 10.7081C32.6733 10.7081 33.1211 11.1558 33.1211 11.7081V12.294H34.5005C35.8144 12.3169 35.8152 14.2713 34.5005 14.294H31.3281C30.5623 14.2983 30.5608 15.4623 31.3281 15.4664Z" fill="#dfdfdf"/>
<path d="M56.6956 13.1528C56.6956 15.9142 54.457 18.1528 51.6956 18.1528C54.457 18.1528 56.6956 20.3914 56.6956 23.1528C56.6956 20.3914 58.9341 18.1528 61.6956 18.1528C58.9341 18.1528 56.6956 15.9142 56.6956 13.1528Z" fill="#dfdfdf"/>
<path d="M14.6956 3.15283C14.6956 5.91424 12.457 8.15283 9.69556 8.15283C12.457 8.15283 14.6956 10.3914 14.6956 13.1528C14.6956 10.3914 16.9341 8.15283 19.6956 8.15283C16.9341 8.15283 14.6956 5.91424 14.6956 3.15283Z" fill="#dfdfdf"/>
<path d="M59.1151 28.9108C58.065 28.9408 57.2851 30.1508 56.385 31.4808C56.385 31.4808 53.345 36.0108 49.385 39.9408C47.8651 41.4508 45.375 43.9208 41.385 44.9408C39.7456 45.4992 33.8862 46.3966 31.195 42.7908C33.7551 44.1208 37.7351 46.2108 41.835 42.9508C43.075 41.9608 44.165 40.7008 44.845 39.1608C45.635 37.4008 44.445 35.3508 42.685 35.4308C37.2251 35.6708 29.425 33.9608 26.835 34.2708C24.5234 34.5461 22.1419 35.5656 20.5595 37.3639C20.1279 35.5308 17.934 34.7233 16.2561 35.5143C16.2561 35.5142 4.30098 40.732 4.30098 40.732C2.75508 41.4068 1.95821 42.9967 2.44844 44.4302L8.10567 60.9986C8.64571 62.6688 10.7829 63.2958 12.3146 62.5679C12.3146 62.5679 24.2697 57.3502 24.2697 57.3502C25.8156 56.6754 26.6125 55.0855 26.1223 53.6519L25.6175 52.174C27.3007 51.583 30.1735 51.2698 31.195 52.0108C36.2851 54.0708 38.0151 58.0908 42.705 56.6308C54.085 53.0608 61.3051 34.0008 61.6151 32.6508C62.0451 30.7708 60.685 28.8708 59.1151 28.9108ZM23.4699 55.5172L11.5139 60.7359C10.9513 60.9569 10.2726 60.9485 9.99826 60.3521L4.34103 43.7838C4.19552 43.358 4.53634 42.8121 5.1008 42.565L17.0568 37.3463C17.6202 37.1255 18.2975 37.1332 18.5715 37.73C18.5715 37.73 24.2297 54.2984 24.2297 54.2984C24.3752 54.7242 24.0344 55.2701 23.4699 55.5172Z" fill="#dfdfdf"/>
<path d="M42.6297 43.5684C44.0058 42.8723 45.4916 41.9871 47.002 40.8557C51.7831 37.2742 54.5072 32.9502 56.002 29.9727C50.7396 26.5976 52.2715 32.6106 48.3849 36.9407C47.4403 38.0147 46.4733 38.706 45.853 39.1004C45.4808 40.5568 43.6967 42.8984 42.6297 43.5684Z" fill="#dfdfdf"/>
<path d="M50.0572 31.2805C48.561 30.5981 47.4941 31.5235 46.9934 32.9827C46.3629 34.6476 46.6416 35.7168 45.0706 36.0252C45.2139 36.1225 45.568 36.3905 45.7727 36.8869C45.9948 37.4257 45.9047 37.903 45.8657 38.0678C47.4714 36.7194 49.1074 34.6216 50.0572 31.2805Z" fill="#dfdfdf"/>
</svg>
