<svg width="64" height="80" viewBox="0 0 64 80" fill="none" xmlns="http://www.w3.org/2000/svg">
<path d="M46 41V30H42V34H34V26.72C36.359 27.5093 38.8823 27.6736 41.3237 27.1969C43.7651 26.7202 46.0412 25.6188 47.93 24C48.0361 23.9113 48.1227 23.8016 48.1842 23.6777C48.2457 23.5538 48.2809 23.4186 48.2875 23.2804C48.2941 23.1423 48.2719 23.0042 48.2224 22.8751C48.1729 22.7459 48.0972 22.6284 48 22.5301L39.29 13.8201L40.41 12.7001C40.9675 12.9649 41.5932 13.0513 42.2017 12.9475C42.8102 12.8437 43.3718 12.5548 43.81 12.1201C44.3718 11.5575 44.6874 10.7951 44.6874 10.0001C44.6874 9.20505 44.3718 8.44255 43.81 7.88005C43.2401 7.33248 42.4804 7.02668 41.69 7.02668C40.8996 7.02668 40.1399 7.33248 39.57 7.88005C39.1353 8.31826 38.8463 8.8799 38.7425 9.48837C38.6387 10.0968 38.7252 10.7225 38.99 11.2801L37.88 12.4001L29.16 3.69005C29.0615 3.59121 28.9434 3.51408 28.8132 3.46363C28.6831 3.41318 28.5439 3.39052 28.4045 3.39711C28.2651 3.40371 28.1286 3.4394 28.0038 3.50191C27.8791 3.56442 27.7688 3.65235 27.68 3.76005C25.3233 6.5061 24.0911 10.0412 24.2302 13.6572C24.3692 17.2732 25.8693 20.7031 28.43 23.26C29.4752 24.3152 30.68 25.1993 32 25.88C31.9955 25.9199 31.9955 25.9602 32 26V34H22V30H21V22.85L23.22 25.6201C23.3131 25.7379 23.4316 25.8333 23.5666 25.899C23.7017 25.9648 23.8498 25.9994 24 26C24.2256 25.9987 24.4441 25.9212 24.62 25.7801C24.7235 25.6982 24.8097 25.5968 24.8738 25.4815C24.9379 25.3662 24.9786 25.2394 24.9934 25.1083C25.0083 24.9773 24.9971 24.8446 24.9605 24.7179C24.9238 24.5912 24.8625 24.473 24.78 24.3701L16.78 14.3701C16.6113 14.1725 16.3723 14.0483 16.1136 14.0239C15.855 13.9994 15.597 14.0766 15.3942 14.239C15.1915 14.4015 15.0599 14.6365 15.0274 14.8943C14.9949 15.152 15.064 15.4123 15.22 15.6201L19 20.35V30H18V41C15.3478 41 12.8043 42.0536 10.9289 43.929C9.05357 45.8043 8 48.3479 8 51C8 53.6522 9.05357 56.1958 10.9289 58.0711C12.8043 59.9465 15.3478 61 18 61H46C48.6522 61 51.1957 59.9465 53.0711 58.0711C54.9464 56.1958 56 53.6522 56 51C56 48.3479 54.9464 45.8043 53.0711 43.929C51.1957 42.0536 48.6522 41 46 41ZM36 37H42V39H36C35.7348 39 35.4804 38.8947 35.2929 38.7072C35.1054 38.5196 35 38.2653 35 38C35 37.7348 35.1054 37.4805 35.2929 37.2929C35.4804 37.1054 35.7348 37 36 37ZM31 37H32C32.2652 37 32.5196 37.1054 32.7071 37.2929C32.8946 37.4805 33 37.7348 33 38C33 38.2653 32.8946 38.5196 32.7071 38.7072C32.5196 38.8947 32.2652 39 32 39H31C30.7348 39 30.4804 38.8947 30.2929 38.7072C30.1054 38.5196 30 38.2653 30 38C30 37.7348 30.1054 37.4805 30.2929 37.2929C30.4804 37.1054 30.7348 37 31 37ZM46 59H18C15.8783 59 13.8434 58.1572 12.3431 56.6569C10.8429 55.1566 10 53.1218 10 51C10 48.8783 10.8429 46.8435 12.3431 45.3432C13.8434 43.8429 15.8783 43 18 43H46C48.1217 43 50.1566 43.8429 51.6569 45.3432C53.1571 46.8435 54 48.8783 54 51C54 53.1218 53.1571 55.1566 51.6569 56.6569C50.1566 58.1572 48.1217 59 46 59Z" fill="#DFDFDF"/>
<path d="M38.16 6.46016C39.103 5.54937 40.366 5.0454 41.677 5.05679C42.988 5.06818 44.2421 5.59403 45.1691 6.52107C46.0961 7.44811 46.622 8.70217 46.6334 10.0132C46.6448 11.3241 46.1408 12.5872 45.23 13.5302C45.0351 13.7171 44.9224 13.9739 44.9168 14.2439C44.9112 14.514 45.013 14.7752 45.2 14.9702C45.387 15.1651 45.6437 15.2778 45.9138 15.2834C46.1839 15.289 46.4451 15.1871 46.64 15.0002C47.2901 14.3501 47.8057 13.5784 48.1575 12.7291C48.5093 11.8798 48.6904 10.9695 48.6904 10.0502C48.6904 9.13086 48.5093 8.22056 48.1575 7.37124C47.8057 6.52192 47.2901 5.75021 46.64 5.10016C45.99 4.45012 45.2183 3.93448 44.3689 3.58268C43.5196 3.23087 42.6093 3.0498 41.69 3.0498C39.8334 3.0498 38.0528 3.78734 36.74 5.10016C36.5538 5.28752 36.4492 5.54098 36.4492 5.80516C36.4492 6.06935 36.5538 6.3228 36.74 6.51016C36.8362 6.60069 36.9494 6.67126 37.0731 6.71778C37.1968 6.76431 37.3284 6.78587 37.4604 6.78122C37.5925 6.77657 37.7223 6.7458 37.8424 6.6907C37.9624 6.63559 38.0704 6.55724 38.16 6.46016Z" fill="#DFDFDF"/>
<path d="M46 45H18C16.4087 45 14.8826 45.6321 13.7574 46.7574C12.6321 47.8826 12 49.4087 12 51C12 52.5913 12.6321 54.1174 13.7574 55.2426C14.8826 56.3679 16.4087 57 18 57H46C47.5913 57 49.1174 56.3679 50.2426 55.2426C51.3679 54.1174 52 52.5913 52 51C52 49.4087 51.3679 47.8826 50.2426 46.7574C49.1174 45.6321 47.5913 45 46 45ZM18 55C17.2089 55 16.4355 54.7654 15.7777 54.3259C15.1199 53.8864 14.6072 53.2616 14.3045 52.5307C14.0017 51.7998 13.9225 50.9956 14.0769 50.2196C14.2312 49.4437 14.6122 48.731 15.1716 48.1716C15.731 47.6122 16.4437 47.2312 17.2196 47.0769C17.9956 46.9225 18.7998 47.0017 19.5307 47.3045C20.2616 47.6072 20.8864 48.1199 21.3259 48.7777C21.7654 49.4355 22 50.2089 22 51C22 52.0609 21.5786 53.0783 20.8284 53.8284C20.0783 54.5786 19.0609 55 18 55ZM27.54 55H22.46C23.4439 53.9 23.9879 52.4759 23.9879 51C23.9879 49.5241 23.4439 48.1 22.46 47H27.54C26.5561 48.1 26.0121 49.5241 26.0121 51C26.0121 52.4759 26.5561 53.9 27.54 55ZM32 55C31.2089 55 30.4355 54.7654 29.7777 54.3259C29.1199 53.8864 28.6072 53.2616 28.3045 52.5307C28.0017 51.7998 27.9225 50.9956 28.0769 50.2196C28.2312 49.4437 28.6122 48.731 29.1716 48.1716C29.731 47.6122 30.4437 47.2312 31.2196 47.0769C31.9956 46.9225 32.7998 47.0017 33.5307 47.3045C34.2616 47.6072 34.8864 48.1199 35.3259 48.7777C35.7654 49.4355 36 50.2089 36 51C36 52.0609 35.5786 53.0783 34.8284 53.8284C34.0783 54.5786 33.0609 55 32 55ZM41.54 55H36.46C37.4439 53.9 37.9879 52.4759 37.9879 51C37.9879 49.5241 37.4439 48.1 36.46 47H41.54C40.5561 48.1 40.0121 49.5241 40.0121 51C40.0121 52.4759 40.5561 53.9 41.54 55ZM46 55C45.2089 55 44.4355 54.7654 43.7777 54.3259C43.1199 53.8864 42.6072 53.2616 42.3045 52.5307C42.0017 51.7998 41.9225 50.9956 42.0769 50.2196C42.2312 49.4437 42.6122 48.731 43.1716 48.1716C43.731 47.6122 44.4437 47.2312 45.2196 47.0769C45.9956 46.9225 46.7998 47.0017 47.5307 47.3045C48.2616 47.6072 48.8864 48.1199 49.3259 48.7777C49.7654 49.4355 50 50.2089 50 51C50 52.0609 49.5786 53.0783 48.8284 53.8284C48.0783 54.5786 47.0609 55 46 55Z" fill="#DFDFDF"/>
<path d="M32 54C33.6569 54 35 52.6569 35 51C35 49.3431 33.6569 48 32 48C30.3431 48 29 49.3431 29 51C29 52.6569 30.3431 54 32 54Z" fill="#DFDFDF"/>
<path d="M18 54C19.6569 54 21 52.6569 21 51C21 49.3431 19.6569 48 18 48C16.3431 48 15 49.3431 15 51C15 52.6569 16.3431 54 18 54Z" fill="#DFDFDF"/>
<path d="M46 54C47.6569 54 49 52.6569 49 51C49 49.3431 47.6569 48 46 48C44.3431 48 43 49.3431 43 51C43 52.6569 44.3431 54 46 54Z" fill="#DFDFDF"/>
</svg>
