<svg width="64" height="80" viewBox="0 0 64 80" fill="none" xmlns="http://www.w3.org/2000/svg">
<path d="M36.0001 35V28C35.7601 23 32.0001 19 32.0001 19C32.0001 19 28.2401 23 28.0001 28V35L16.7101 46.29C16.5697 46.4293 16.4737 46.6071 16.4343 46.8009C16.395 46.9947 16.4139 47.1958 16.4888 47.3789C16.5638 47.5619 16.6913 47.7186 16.8553 47.8292C17.0193 47.9397 17.2123 47.9992 17.4101 48H27.0001C27.2653 48 27.5197 48.1054 27.7072 48.2929C27.8948 48.4804 28.0001 48.7348 28.0001 49V50C28.0001 50.2652 28.1055 50.5196 28.293 50.7071C28.4805 50.8946 28.7349 51 29.0001 51H35.0001C35.2653 51 35.5197 50.8946 35.7072 50.7071C35.8948 50.5196 36.0001 50.2652 36.0001 50V49C36.0001 48.7348 36.1055 48.4804 36.293 48.2929C36.4805 48.1054 36.7349 48 37.0001 48H46.5901C46.7879 47.9992 46.981 47.9397 47.145 47.8292C47.3089 47.7186 47.4365 47.5619 47.5114 47.3789C47.5863 47.1958 47.6053 46.9947 47.5659 46.8009C47.5265 46.6071 47.4305 46.4293 47.2901 46.29L36.0001 35Z" fill="#DFDFDF"/>
<path d="M25.9999 28.0002C26.2799 22.2202 30.3699 17.8102 30.5399 17.6302C30.727 17.4304 30.9531 17.2711 31.2042 17.1622C31.4554 17.0533 31.7262 16.9971 31.9999 16.9971C32.2736 16.9971 32.5444 17.0533 32.7956 17.1622C33.0467 17.2711 33.2728 17.4304 33.4599 17.6302C33.6299 17.8102 37.7199 22.2202 37.9999 27.9002V34.1702L38.9999 35.1702V17.0002C39.0049 16.9203 39.0049 16.8401 38.9999 16.7602C38.6476 12.4029 36.8934 8.27702 33.9999 5.0002C33.7559 4.70647 33.4502 4.4701 33.1046 4.30786C32.7589 4.14563 32.3817 4.06152 31.9999 4.06152C31.6181 4.06152 31.2409 4.14563 30.8952 4.30786C30.5496 4.4701 30.2439 4.70647 29.9999 5.0002C27.0965 8.29041 25.3416 12.4354 24.9999 16.8102C24.9968 16.8735 24.9968 16.9369 24.9999 17.0002V35.1702L25.9999 34.1702V28.0002Z" fill="#DFDFDF"/>
<path d="M47 25.5C47 23 44.5 21 44.5 21C44.5 21 42 23 42 25.5V38.18L47 43.18V25.5Z" fill="#DFDFDF"/>
<path d="M22 25.5C22 23 19.5 21 19.5 21C19.5 21 17 23 17 25.5V43.18L22 38.18V25.5Z" fill="#DFDFDF"/>
<path d="M43 51.0001C42.4839 50.9909 41.971 51.0834 41.4906 51.2723C41.0103 51.4613 40.5718 51.7431 40.2004 52.1015C39.8289 52.46 39.5317 52.8881 39.3258 53.3614C39.1198 53.8348 39.0091 54.344 39 54.8601C39 57.0001 43 60.0001 43 60.0001C43 60.0001 47 57.0001 47 54.8601C46.9909 54.344 46.8802 53.8348 46.6742 53.3614C46.4683 52.8881 46.1711 52.46 45.7996 52.1015C45.4282 51.7431 44.9897 51.4613 44.5094 51.2723C44.029 51.0834 43.5161 50.9909 43 51.0001Z" fill="#DFDFDF"/>
<path d="M21 51.0001C20.4839 50.9909 19.971 51.0834 19.4906 51.2723C19.0103 51.4613 18.5718 51.7431 18.2004 52.1015C17.8289 52.46 17.5317 52.8881 17.3258 53.3614C17.1198 53.8348 17.0091 54.344 17 54.8601C17 57.0001 21 60.0001 21 60.0001C21 60.0001 25 57.0001 25 54.8601C24.9909 54.344 24.8802 53.8348 24.6742 53.3614C24.4683 52.8881 24.1711 52.46 23.7996 52.1015C23.4282 51.7431 22.9897 51.4613 22.5094 51.2723C22.029 51.0834 21.5161 50.9909 21 51.0001Z" fill="#DFDFDF"/>
</svg>
